<svg xmlns="http://www.w3.org/2000/svg" x="0px" y="0px" width="100" height="100" viewBox="0 0 100 100">
<circle cx="13" cy="29" r="2" fill="#ee3e54"></circle><circle cx="77" cy="13" r="1" fill="#f1bc19"></circle><circle cx="50" cy="50" r="37" fill="#fce0a2"></circle><circle cx="83" cy="15" r="4" fill="#f1bc19"></circle><circle cx="87" cy="24" r="2" fill="#ee3e54"></circle><circle cx="81" cy="76" r="2" fill="#fbcd59"></circle><circle cx="15" cy="63" r="4" fill="#fbcd59"></circle><circle cx="25" cy="87" r="2" fill="#ee3e54"></circle><circle cx="18.5" cy="53.5" r="2.5" fill="#fff"></circle><circle cx="21" cy="67" r="1" fill="#f1bc19"></circle><circle cx="80" cy="34" r="1" fill="#fff"></circle><path fill="#ce1d7e" d="M72.3,33.7v32.6c0,3.31-2.69,6-6,6H33.7c-3.31,0-6-2.69-6-6V33.7c0-3.31,2.69-6,6-6h32.6	C69.61,27.7,72.3,30.39,72.3,33.7z"></path><path fill="#db1a58" d="M72.3,48.04V66.3c0,3.31-2.69,6-6,6H33.7c-3.31,0-6-2.69-6-6V33.7c0-3.31,2.69-6,6-6h18.26	C60.6,32.29,67.71,39.4,72.3,48.04z"></path><path fill="#e4273e" d="M70,71c0,0.01,0,0.01,0,0.02c-1.02,0.8-2.3,1.28-3.7,1.28H33.7c-3.31,0-6-2.69-6-6V33.7	c0-1.4,0.48-2.68,1.28-3.7c0.01,0,0.01,0,0.02,0C51.64,30,70,48.36,70,71z"></path><path fill="#f45834" d="M62,71c0,0.44-0.01,0.87-0.03,1.3H33.7c-3.31,0-6-2.69-6-6V38.03C28.13,38.01,28.56,38,29,38	C47.23,38,62,52.77,62,71z"></path><path fill="#f47c22" d="M54,71c0,0.43-0.01,0.87-0.03,1.3H33.7c-3.31,0-6-2.69-6-6V46.03C28.13,46.01,28.57,46,29,46	C42.81,46,54,57.19,54,71z"></path><path fill="#ef9922" d="M47,71c0,0.44-0.02,0.87-0.05,1.3H33.7c-3.31,0-6-2.69-6-6V53.05C28.13,53.02,28.56,53,29,53	C38.94,53,47,61.06,47,71z"></path><path fill="#fbb821" d="M41,71c0,0.44-0.02,0.87-0.07,1.3H33.7c-3.31,0-6-2.69-6-6v-7.23C28.13,59.02,28.56,59,29,59	C35.63,59,41,64.37,41,71z"></path><path fill="#472b29" d="M66.3,73H33.7c-3.694,0-6.7-3.006-6.7-6.7V33.7c0-3.694,3.006-6.7,6.7-6.7h32.6	c3.694,0,6.7,3.006,6.7,6.7v32.6C73,69.994,69.994,73,66.3,73z M33.7,28.4c-2.923,0-5.3,2.377-5.3,5.3v32.6	c0,2.922,2.377,5.3,5.3,5.3h32.6c2.923,0,5.3-2.377,5.3-5.3V33.7c0-2.922-2.377-5.3-5.3-5.3C66.3,28.4,33.7,28.4,33.7,28.4z"></path><path fill="#fff" d="M57,34H43c-4.971,0-9,4.029-9,9v14c0,4.971,4.029,9,9,9h14c4.971,0,9-4.029,9-9V43	C66,38.029,61.971,34,57,34z M63,57c0,3.314-2.686,6-6,6H43c-3.314,0-6-2.686-6-6V43c0-3.314,2.686-6,6-6h14c3.314,0,6,2.686,6,6V57	z"></path><polygon fill="#fff" points="48.25,42.5 44.75,42.5 41.25,36.5 44.75,36.5"></polygon><polygon fill="#fff" points="58.25,42.5 54.75,42.5 51.25,36.5 54.75,36.5"></polygon><rect width="28" height="2.5" x="36" y="42.25" fill="#fff"></rect><path fill="#472b29" d="M57,34.5c4.687,0,8.5,3.813,8.5,8.5v14c0,4.687-3.813,8.5-8.5,8.5H43c-4.687,0-8.5-3.813-8.5-8.5V43	c0-4.687,3.813-8.5,8.5-8.5H57 M58.208,42.5h4.702c0.147,0,0.287-0.065,0.382-0.177c0.095-0.112,0.136-0.261,0.111-0.406	C62.875,38.778,60.182,36.5,57,36.5h-1.708c-0.179,0-0.344,0.096-0.434,0.251c-0.089,0.155-0.089,0.346,0.002,0.501l2.917,5	C57.866,42.406,58.03,42.5,58.208,42.5 M48.208,42.5h6c0.179,0,0.344-0.096,0.434-0.251c0.089-0.155,0.089-0.346-0.002-0.501	l-2.917-5c-0.09-0.154-0.254-0.248-0.432-0.248h-6c-0.179,0-0.344,0.096-0.434,0.251c-0.089,0.155-0.089,0.346,0.002,0.501l2.917,5	C47.866,42.406,48.03,42.5,48.208,42.5 M37.09,42.5h7.118c0.179,0,0.344-0.096,0.434-0.251c0.089-0.155,0.089-0.346-0.002-0.501	l-2.781-4.767c-0.091-0.156-0.257-0.248-0.432-0.248c-0.044,0-0.088,0.006-0.132,0.018c-2.439,0.666-4.283,2.694-4.699,5.166	c-0.024,0.145,0.016,0.293,0.111,0.406C36.803,42.435,36.943,42.5,37.09,42.5 M43,63.5h14c3.584,0,6.5-2.916,6.5-6.5V45	c0-0.276-0.224-0.5-0.5-0.5H37c-0.276,0-0.5,0.224-0.5,0.5v12C36.5,60.584,39.416,63.5,43,63.5 M57,34H43c-4.971,0-9,4.029-9,9v14	c0,4.971,4.029,9,9,9h14c4.971,0,9-4.029,9-9V43C66,38.029,61.971,34,57,34L57,34z M58.208,42l-2.917-5H57	c2.972,0,5.433,2.163,5.91,5H58.208L58.208,42z M48.208,42l-2.917-5h6l2.917,5H48.208L48.208,42z M37.09,42	c0.389-2.314,2.108-4.158,4.338-4.767L44.208,42H37.09L37.09,42z M43,63c-3.314,0-6-2.686-6-6V45h26v12c0,3.314-2.686,6-6,6H43	L43,63z"></path><path fill="#fff" d="M55.176,52.464l-7.58-4.307C46.884,47.752,46,48.266,46,49.085v8.829	c0,0.819,0.884,1.333,1.596,0.929l7.58-4.307C55.98,54.08,55.98,52.921,55.176,52.464z"></path><path fill="#472b29" d="M47.07,48.016c0.176,0,0.356,0.044,0.526,0.141l7.58,4.307c0.804,0.457,0.804,1.616,0,2.073	l-7.58,4.307c-0.17,0.097-0.351,0.141-0.526,0.141c-0.558,0-1.07-0.447-1.07-1.07v-8.829C46,48.462,46.511,48.016,47.07,48.016 M47.07,47.516c-0.866,0-1.57,0.704-1.57,1.57v8.829c0,0.866,0.704,1.57,1.57,1.57c0.268,0,0.536-0.071,0.773-0.206l7.58-4.307	c0.536-0.305,0.856-0.855,0.856-1.471s-0.32-1.167-0.856-1.471l-7.58-4.307C47.605,47.587,47.338,47.516,47.07,47.516L47.07,47.516z"></path>
</svg>